# xmcd CD database file
#
# Track frame offsets:
#	150
#	33135
#	50073
#	76123
#	90115
#	107613
#	132120
#	149233
#	174088
#	194190
#	210418
#
# Disc length: 2986 seconds
#
# Revision: 0
# Processed by: cddbd v1.4PL0 Copyright (c) Steve Scherf et al.
# Submitted via: CDex 1.50Beta7
#
DISCID=8d0ba80b
DTITLE=Sebastian - Fata Morgana
DYEAR=1900
DGENRE=New Age
TTITLE0=And the birds are singing
TTITLE1=That nice white cottage
TTITLE2=The nightingale
TTITLE3=sea of love
TTITLE4=Theme from Sebastian
TTITLE5=Romance
TTITLE6=Sleeptalk
TTITLE7=Fatamorgana
TTITLE8=Beautiful sunshine will follow the rain
TTITLE9=Guarana
TTITLE10=The birds are singing
EXTD=
EXTT0=
EXTT1=
EXTT2=
EXTT3=
EXTT4=
EXTT5=
EXTT6=
EXTT7=
EXTT8=
EXTT9=
EXTT10=
PLAYORDER=
